<svg width="330" height="175" viewBox="0 0 330 175" fill="none" xmlns="http://www.w3.org/2000/svg">
<g clip-path="url(#clip0_644_96424)">
<rect y="0.25" width="330" height="72" rx="12" fill="white"/>
<rect x="16" y="14.25" width="32" height="32" rx="16" fill="#D4D3F7"/>
<g clip-path="url(#clip1_644_96424)">
<path d="M32.6665 23.5835H27.9998C27.6462 23.5835 27.3071 23.724 27.057 23.974C26.807 24.2241 26.6665 24.5632 26.6665 24.9168V35.5835C26.6665 35.9371 26.807 36.2763 27.057 36.5263C27.3071 36.7764 27.6462 36.9168 27.9998 36.9168H35.9998C36.3535 36.9168 36.6926 36.7764 36.9426 36.5263C37.1927 36.2763 37.3332 35.9371 37.3332 35.5835V28.2502M32.6665 23.5835L37.3332 28.2502M32.6665 23.5835V28.2502H37.3332" stroke="#2824D5" stroke-width="1.33333" stroke-linecap="round" stroke-linejoin="round"/>
</g>
<rect x="16" y="14.25" width="32" height="32" rx="16" stroke="#EAE9FB" stroke-width="4"/>
<path d="M70.946 22.01L66.83 26.462L66.662 26.476L64.268 29.052L64.128 27.414L69.112 22.01H70.946ZM64.87 22.01V31.25H63.372V22.01H64.87ZM67.138 25.314L71.03 31.25H69.266L65.948 26.154L67.138 25.314ZM79.4879 22.01L76.1839 27.708V31.25H74.6859V27.708L71.3959 22.01H73.0619L74.7139 24.992L75.4419 26.364L76.1699 24.992L77.8079 22.01H79.4879ZM88.2566 28.8C88.0699 29.36 87.7899 29.836 87.4166 30.228C87.0432 30.6107 86.6046 30.9 86.1006 31.096C85.5966 31.292 85.0412 31.39 84.4346 31.39C83.5479 31.39 82.7779 31.1987 82.1246 30.816C81.4712 30.4333 80.9672 29.8873 80.6126 29.178C80.2579 28.4687 80.0806 27.6193 80.0806 26.63C80.0806 25.6407 80.2579 24.7913 80.6126 24.082C80.9672 23.3727 81.4712 22.8267 82.1246 22.444C82.7779 22.0613 83.5432 21.87 84.4206 21.87C85.0272 21.87 85.5732 21.954 86.0586 22.122C86.5532 22.29 86.9732 22.542 87.3186 22.878C87.6639 23.214 87.9299 23.634 88.1166 24.138L86.7026 24.768C86.5159 24.2173 86.2452 23.816 85.8906 23.564C85.5359 23.3027 85.0739 23.172 84.5046 23.172C83.9352 23.172 83.4359 23.3073 83.0066 23.578C82.5772 23.8487 82.2412 24.2407 81.9986 24.754C81.7652 25.2673 81.6486 25.8927 81.6486 26.63C81.6486 27.358 81.7606 27.9833 81.9846 28.506C82.2086 29.0193 82.5306 29.4113 82.9506 29.682C83.3706 29.9527 83.8746 30.088 84.4626 30.088C85.0319 30.088 85.5219 29.9433 85.9326 29.654C86.3526 29.3553 86.6512 28.912 86.8286 28.324L88.2566 28.8ZM97.9836 22.01C99.4303 22.01 100.555 22.4113 101.358 23.214C102.17 24.0073 102.576 25.146 102.576 26.63C102.576 28.114 102.17 29.2573 101.358 30.06C100.555 30.8533 99.4303 31.25 97.9836 31.25H94.7216V22.01H97.9836ZM97.9836 29.976C98.9636 29.976 99.7103 29.6867 100.224 29.108C100.746 28.52 101.008 27.694 101.008 26.63C101.008 25.566 100.746 24.7447 100.224 24.166C99.7103 23.578 98.9636 23.284 97.9836 23.284H96.2196V29.976H97.9836ZM107.626 24.11C108.307 24.11 108.909 24.2547 109.432 24.544C109.954 24.8333 110.36 25.2533 110.65 25.804C110.948 26.3453 111.098 26.994 111.098 27.75C111.098 28.506 110.948 29.1593 110.65 29.71C110.36 30.2513 109.954 30.6667 109.432 30.956C108.909 31.2453 108.307 31.39 107.626 31.39C106.944 31.39 106.342 31.2453 105.82 30.956C105.297 30.6667 104.886 30.2513 104.588 29.71C104.289 29.1593 104.14 28.506 104.14 27.75C104.14 26.994 104.289 26.3453 104.588 25.804C104.886 25.2533 105.297 24.8333 105.82 24.544C106.342 24.2547 106.944 24.11 107.626 24.11ZM107.626 25.286C107.206 25.286 106.846 25.384 106.548 25.58C106.258 25.7667 106.034 26.042 105.876 26.406C105.717 26.77 105.638 27.218 105.638 27.75C105.638 28.2727 105.717 28.7207 105.876 29.094C106.034 29.458 106.258 29.738 106.548 29.934C106.846 30.1207 107.206 30.214 107.626 30.214C108.046 30.214 108.4 30.1207 108.69 29.934C108.979 29.738 109.203 29.458 109.362 29.094C109.52 28.7207 109.6 28.2727 109.6 27.75C109.6 27.218 109.52 26.77 109.362 26.406C109.203 26.042 108.979 25.7667 108.69 25.58C108.4 25.384 108.046 25.286 107.626 25.286ZM116.006 24.11C116.566 24.11 117.042 24.194 117.434 24.362C117.836 24.5207 118.172 24.7493 118.442 25.048C118.713 25.3467 118.918 25.6873 119.058 26.07L117.644 26.63C117.523 26.2007 117.327 25.874 117.056 25.65C116.795 25.4167 116.45 25.3 116.02 25.3C115.6 25.3 115.241 25.398 114.942 25.594C114.644 25.7807 114.415 26.056 114.256 26.42C114.107 26.784 114.032 27.232 114.032 27.764C114.032 28.2867 114.112 28.73 114.27 29.094C114.429 29.458 114.658 29.7333 114.956 29.92C115.255 30.1067 115.61 30.2 116.02 30.2C116.338 30.2 116.613 30.1487 116.846 30.046C117.08 29.934 117.271 29.78 117.42 29.584C117.579 29.3787 117.686 29.1313 117.742 28.842L119.1 29.304C118.97 29.724 118.764 30.0927 118.484 30.41C118.214 30.718 117.873 30.9607 117.462 31.138C117.052 31.306 116.58 31.39 116.048 31.39C115.358 31.39 114.746 31.2453 114.214 30.956C113.682 30.6667 113.267 30.2513 112.968 29.71C112.679 29.1593 112.534 28.506 112.534 27.75C112.534 26.994 112.679 26.3453 112.968 25.804C113.267 25.2533 113.678 24.8333 114.2 24.544C114.732 24.2547 115.334 24.11 116.006 24.11ZM123.336 31.39C122.878 31.39 122.454 31.306 122.062 31.138C121.679 30.97 121.371 30.6993 121.138 30.326C120.904 29.9527 120.788 29.4673 120.788 28.87V24.25H122.286V28.492C122.286 29.1267 122.421 29.5653 122.692 29.808C122.962 30.0413 123.34 30.158 123.826 30.158C124.059 30.158 124.283 30.1207 124.498 30.046C124.722 29.962 124.922 29.836 125.1 29.668C125.277 29.4907 125.412 29.2667 125.506 28.996C125.608 28.7253 125.66 28.408 125.66 28.044V24.25H127.158V31.25H125.842L125.772 30.116C125.529 30.5547 125.202 30.8767 124.792 31.082C124.381 31.2873 123.896 31.39 123.336 31.39ZM129.498 31.25V24.25H130.828L130.898 25.426C131.141 24.978 131.463 24.6467 131.864 24.432C132.275 24.2173 132.709 24.11 133.166 24.11C133.67 24.11 134.132 24.2267 134.552 24.46C134.981 24.684 135.303 25.0247 135.518 25.482C135.667 25.174 135.873 24.9173 136.134 24.712C136.395 24.5067 136.685 24.3573 137.002 24.264C137.319 24.1613 137.632 24.11 137.94 24.11C138.388 24.11 138.808 24.2033 139.2 24.39C139.592 24.5767 139.909 24.8613 140.152 25.244C140.395 25.6267 140.516 26.1167 140.516 26.714V31.25H139.018V26.952C139.018 26.3827 138.883 25.972 138.612 25.72C138.341 25.468 137.996 25.342 137.576 25.342C137.249 25.342 136.946 25.4213 136.666 25.58C136.395 25.7387 136.176 25.9767 136.008 26.294C135.84 26.602 135.756 26.9847 135.756 27.442V31.25H134.258V26.952C134.258 26.3827 134.123 25.972 133.852 25.72C133.581 25.468 133.236 25.342 132.816 25.342C132.536 25.342 132.256 25.4167 131.976 25.566C131.696 25.7153 131.463 25.9487 131.276 26.266C131.089 26.5833 130.996 27.0033 130.996 27.526V31.25H129.498ZM145.867 31.39C145.167 31.39 144.551 31.2453 144.019 30.956C143.487 30.6667 143.072 30.2513 142.773 29.71C142.484 29.1593 142.339 28.506 142.339 27.75C142.339 26.994 142.484 26.3453 142.773 25.804C143.072 25.2533 143.482 24.8333 144.005 24.544C144.528 24.2547 145.12 24.11 145.783 24.11C146.464 24.11 147.043 24.25 147.519 24.53C147.995 24.81 148.359 25.1927 148.611 25.678C148.863 26.1633 148.989 26.714 148.989 27.33C148.989 27.498 148.984 27.6567 148.975 27.806C148.966 27.9553 148.952 28.086 148.933 28.198H143.305V27.05H148.275L147.533 27.274C147.533 26.6393 147.374 26.154 147.057 25.818C146.74 25.4727 146.306 25.3 145.755 25.3C145.354 25.3 145.004 25.3933 144.705 25.58C144.406 25.7667 144.178 26.0467 144.019 26.42C143.86 26.784 143.781 27.232 143.781 27.764C143.781 28.2867 143.865 28.73 144.033 29.094C144.201 29.458 144.439 29.7333 144.747 29.92C145.055 30.1067 145.419 30.2 145.839 30.2C146.306 30.2 146.684 30.1113 146.973 29.934C147.262 29.7567 147.491 29.5093 147.659 29.192L148.849 29.752C148.681 30.088 148.452 30.382 148.163 30.634C147.883 30.8767 147.547 31.0633 147.155 31.194C146.763 31.3247 146.334 31.39 145.867 31.39ZM150.881 31.25V24.25H152.211L152.309 26.07L152.113 25.874C152.243 25.4727 152.43 25.1413 152.673 24.88C152.925 24.6093 153.219 24.4133 153.555 24.292C153.9 24.1707 154.264 24.11 154.647 24.11C155.141 24.11 155.585 24.208 155.977 24.404C156.378 24.5907 156.695 24.8753 156.929 25.258C157.162 25.6407 157.279 26.126 157.279 26.714V31.25H155.781V27.176C155.781 26.4853 155.636 26.0093 155.347 25.748C155.067 25.4773 154.712 25.342 154.283 25.342C153.975 25.342 153.676 25.4167 153.387 25.566C153.097 25.706 152.855 25.9347 152.659 26.252C152.472 26.5693 152.379 26.994 152.379 27.526V31.25H150.881ZM161.511 22.192V29.15C161.511 29.4953 161.599 29.7473 161.777 29.906C161.963 30.0647 162.211 30.144 162.519 30.144C162.771 30.144 162.99 30.1067 163.177 30.032C163.363 29.948 163.536 29.836 163.695 29.696L164.031 30.788C163.816 30.9747 163.55 31.124 163.233 31.236C162.925 31.3387 162.579 31.39 162.197 31.39C161.795 31.39 161.427 31.3247 161.091 31.194C160.755 31.0633 160.493 30.8533 160.307 30.564C160.12 30.2653 160.022 29.878 160.013 29.402V22.612L161.511 22.192ZM163.919 24.25V25.426H158.669V24.25H163.919ZM166.184 29.36C166.501 29.36 166.753 29.4533 166.94 29.64C167.136 29.8173 167.234 30.06 167.234 30.368C167.234 30.676 167.136 30.9233 166.94 31.11C166.753 31.2967 166.501 31.39 166.184 31.39C165.857 31.39 165.596 31.2967 165.4 31.11C165.213 30.9233 165.12 30.676 165.12 30.368C165.12 30.06 165.213 29.8173 165.4 29.64C165.596 29.4533 165.857 29.36 166.184 29.36ZM169.256 34.19V24.25H170.586L170.698 26.21L170.502 25.972C170.614 25.608 170.786 25.286 171.02 25.006C171.253 24.726 171.542 24.5067 171.888 24.348C172.242 24.1893 172.63 24.11 173.05 24.11C173.619 24.11 174.137 24.2547 174.604 24.544C175.07 24.8333 175.439 25.2487 175.71 25.79C175.98 26.322 176.116 26.9707 176.116 27.736C176.116 28.5013 175.976 29.1593 175.696 29.71C175.425 30.2513 175.052 30.6667 174.576 30.956C174.109 31.2453 173.586 31.39 173.008 31.39C172.41 31.39 171.902 31.236 171.482 30.928C171.062 30.6107 170.763 30.2093 170.586 29.724L170.754 29.486V34.19H169.256ZM172.686 30.172C173.292 30.172 173.764 29.9573 174.1 29.528C174.445 29.0987 174.618 28.506 174.618 27.75C174.618 26.994 174.45 26.4013 174.114 25.972C173.778 25.5333 173.311 25.314 172.714 25.314C172.322 25.314 171.976 25.4167 171.678 25.622C171.388 25.818 171.16 26.098 170.992 26.462C170.833 26.8167 170.754 27.246 170.754 27.75C170.754 28.2447 170.833 28.674 170.992 29.038C171.15 29.402 171.374 29.682 171.664 29.878C171.953 30.074 172.294 30.172 172.686 30.172ZM180.721 31.39C180.142 31.39 179.615 31.2453 179.139 30.956C178.672 30.6667 178.304 30.2513 178.033 29.71C177.762 29.1687 177.627 28.52 177.627 27.764C177.627 26.98 177.772 26.3173 178.061 25.776C178.35 25.2347 178.738 24.824 179.223 24.544C179.708 24.2547 180.24 24.11 180.819 24.11C181.416 24.11 181.92 24.2733 182.331 24.6C182.742 24.9267 183.017 25.3513 183.157 25.874L182.989 26.028V21.1H184.487V31.25H183.157L183.045 29.346L183.241 29.36C183.176 29.78 183.022 30.144 182.779 30.452C182.536 30.7507 182.233 30.984 181.869 31.152C181.514 31.3107 181.132 31.39 180.721 31.39ZM181.043 30.186C181.444 30.186 181.79 30.0833 182.079 29.878C182.368 29.6727 182.592 29.3833 182.751 29.01C182.91 28.6367 182.989 28.1887 182.989 27.666C182.989 27.1807 182.91 26.7653 182.751 26.42C182.592 26.0653 182.368 25.7947 182.079 25.608C181.799 25.4213 181.472 25.328 181.099 25.328C180.474 25.328 179.988 25.5427 179.643 25.972C179.298 26.4013 179.125 26.994 179.125 27.75C179.125 28.506 179.293 29.1033 179.629 29.542C179.965 29.9713 180.436 30.186 181.043 30.186ZM189.778 21.002C190.068 21.002 190.329 21.0347 190.562 21.1C190.805 21.156 190.987 21.2353 191.108 21.338L190.828 22.416C190.726 22.3507 190.609 22.304 190.478 22.276C190.348 22.2387 190.198 22.22 190.03 22.22C189.648 22.22 189.344 22.3087 189.12 22.486C188.906 22.6633 188.798 22.9527 188.798 23.354V24.376L188.84 24.754V31.25H187.342V23.242C187.342 22.8873 187.394 22.57 187.496 22.29C187.608 22.01 187.772 21.7767 187.986 21.59C188.201 21.394 188.458 21.2493 188.756 21.156C189.064 21.0533 189.405 21.002 189.778 21.002ZM191.066 24.25V25.426H186.026V24.25H191.066Z" fill="#344054"/>
<path d="M62.888 49.25V48.47C63.68 47.886 64.34 47.374 64.868 46.934C65.404 46.494 65.832 46.094 66.152 45.734C66.472 45.374 66.7 45.034 66.836 44.714C66.972 44.386 67.04 44.046 67.04 43.694C67.04 43.222 66.888 42.842 66.584 42.554C66.288 42.258 65.88 42.11 65.36 42.11C64.816 42.11 64.38 42.29 64.052 42.65C63.724 43.002 63.532 43.474 63.476 44.066L62.636 43.562C62.708 43.098 62.856 42.69 63.08 42.338C63.312 41.986 63.62 41.71 64.004 41.51C64.396 41.31 64.86 41.21 65.396 41.21C65.804 41.21 66.168 41.27 66.488 41.39C66.816 41.51 67.096 41.682 67.328 41.906C67.56 42.122 67.736 42.382 67.856 42.686C67.984 42.99 68.048 43.326 68.048 43.694C68.048 44.19 67.928 44.678 67.688 45.158C67.448 45.63 67.052 46.126 66.5 46.646C65.948 47.166 65.2 47.742 64.256 48.374V48.386C64.344 48.378 64.464 48.374 64.616 48.374C64.776 48.366 64.932 48.362 65.084 48.362C65.244 48.354 65.364 48.35 65.444 48.35H68.216V49.25H62.888ZM72.7281 49.37C71.8321 49.37 71.1161 49.022 70.5801 48.326C70.0441 47.63 69.7761 46.618 69.7761 45.29C69.7761 43.962 70.0441 42.95 70.5801 42.254C71.1161 41.558 71.8321 41.21 72.7281 41.21C73.6321 41.21 74.3481 41.558 74.8761 42.254C75.4121 42.95 75.6801 43.962 75.6801 45.29C75.6801 46.618 75.4121 47.63 74.8761 48.326C74.3481 49.022 73.6321 49.37 72.7281 49.37ZM72.7281 48.506C73.1521 48.506 73.5081 48.386 73.7961 48.146C74.0921 47.898 74.3121 47.534 74.4561 47.054C74.6081 46.574 74.6841 45.986 74.6841 45.29C74.6841 44.594 74.6081 44.006 74.4561 43.526C74.3121 43.046 74.0921 42.686 73.7961 42.446C73.5081 42.198 73.1521 42.074 72.7281 42.074C72.3041 42.074 71.9441 42.198 71.6481 42.446C71.3601 42.686 71.1401 43.046 70.9881 43.526C70.8441 44.006 70.7721 44.594 70.7721 45.29C70.7721 45.986 70.8441 46.574 70.9881 47.054C71.1401 47.534 71.3601 47.898 71.6481 48.146C71.9441 48.386 72.3041 48.506 72.7281 48.506ZM80.1929 49.37C79.2969 49.37 78.5809 49.022 78.0449 48.326C77.5089 47.63 77.2409 46.618 77.2409 45.29C77.2409 43.962 77.5089 42.95 78.0449 42.254C78.5809 41.558 79.2969 41.21 80.1929 41.21C81.0969 41.21 81.8129 41.558 82.3409 42.254C82.8769 42.95 83.1449 43.962 83.1449 45.29C83.1449 46.618 82.8769 47.63 82.3409 48.326C81.8129 49.022 81.0969 49.37 80.1929 49.37ZM80.1929 48.506C80.6169 48.506 80.9729 48.386 81.2609 48.146C81.5569 47.898 81.7769 47.534 81.9209 47.054C82.0729 46.574 82.1489 45.986 82.1489 45.29C82.1489 44.594 82.0729 44.006 81.9209 43.526C81.7769 43.046 81.5569 42.686 81.2609 42.446C80.9729 42.198 80.6169 42.074 80.1929 42.074C79.7689 42.074 79.4089 42.198 79.1129 42.446C78.8249 42.686 78.6049 43.046 78.4529 43.526C78.3089 44.006 78.2369 44.594 78.2369 45.29C78.2369 45.986 78.3089 46.574 78.4529 47.054C78.6049 47.534 78.8249 47.898 79.1129 48.146C79.4089 48.386 79.7689 48.506 80.1929 48.506ZM95.5156 41.33L92.0596 44.87L91.9156 45.026L89.7916 47.198V45.902L94.2556 41.33H95.5156ZM90.2716 41.33V49.25H89.3116V41.33H90.2716ZM92.1556 44.258L95.5516 49.25H94.3996L91.3636 44.798L92.1556 44.258ZM97.1866 49.25V41.33H100.007C100.943 41.33 101.627 41.526 102.059 41.918C102.491 42.31 102.707 42.842 102.707 43.514C102.707 43.914 102.591 44.278 102.359 44.606C102.127 44.926 101.799 45.13 101.375 45.218V45.23C101.847 45.318 102.219 45.534 102.491 45.878C102.771 46.214 102.911 46.598 102.911 47.03C102.911 47.702 102.659 48.242 102.155 48.65C101.651 49.05 100.931 49.25 99.9946 49.25H97.1866ZM98.1466 48.35H100.223C100.791 48.35 101.211 48.234 101.483 48.002C101.763 47.77 101.903 47.446 101.903 47.03C101.903 46.606 101.763 46.282 101.483 46.058C101.211 45.826 100.791 45.71 100.223 45.71H98.1466V48.35ZM98.1466 44.81H100.019C101.139 44.81 101.699 44.378 101.699 43.514C101.699 42.658 101.139 42.23 100.019 42.23H98.1466V44.81ZM114.804 45.662V46.562H108.804V45.662H114.804ZM122.141 49.25V43.442C122.141 43.306 122.141 43.162 122.141 43.01C122.149 42.85 122.157 42.686 122.165 42.518C121.893 42.782 121.577 43.014 121.217 43.214C120.857 43.406 120.489 43.546 120.113 43.634L119.861 42.758C120.005 42.742 120.185 42.69 120.401 42.602C120.625 42.506 120.857 42.39 121.097 42.254C121.345 42.11 121.573 41.958 121.781 41.798C121.989 41.638 122.149 41.482 122.261 41.33H123.101V49.25H122.141ZM128.052 49.37C127.156 49.37 126.44 49.022 125.904 48.326C125.368 47.63 125.1 46.618 125.1 45.29C125.1 43.962 125.368 42.95 125.904 42.254C126.44 41.558 127.156 41.21 128.052 41.21C128.956 41.21 129.672 41.558 130.2 42.254C130.736 42.95 131.004 43.962 131.004 45.29C131.004 46.618 130.736 47.63 130.2 48.326C129.672 49.022 128.956 49.37 128.052 49.37ZM128.052 48.506C128.476 48.506 128.832 48.386 129.12 48.146C129.416 47.898 129.636 47.534 129.78 47.054C129.932 46.574 130.008 45.986 130.008 45.29C130.008 44.594 129.932 44.006 129.78 43.526C129.636 43.046 129.416 42.686 129.12 42.446C128.832 42.198 128.476 42.074 128.052 42.074C127.628 42.074 127.268 42.198 126.972 42.446C126.684 42.686 126.464 43.046 126.312 43.526C126.168 44.006 126.096 44.594 126.096 45.29C126.096 45.986 126.168 46.574 126.312 47.054C126.464 47.534 126.684 47.898 126.972 48.146C127.268 48.386 127.628 48.506 128.052 48.506ZM135.517 49.37C134.621 49.37 133.905 49.022 133.369 48.326C132.833 47.63 132.565 46.618 132.565 45.29C132.565 43.962 132.833 42.95 133.369 42.254C133.905 41.558 134.621 41.21 135.517 41.21C136.421 41.21 137.137 41.558 137.665 42.254C138.201 42.95 138.469 43.962 138.469 45.29C138.469 46.618 138.201 47.63 137.665 48.326C137.137 49.022 136.421 49.37 135.517 49.37ZM135.517 48.506C135.941 48.506 136.297 48.386 136.585 48.146C136.881 47.898 137.101 47.534 137.245 47.054C137.397 46.574 137.473 45.986 137.473 45.29C137.473 44.594 137.397 44.006 137.245 43.526C137.101 43.046 136.881 42.686 136.585 42.446C136.297 42.198 135.941 42.074 135.517 42.074C135.093 42.074 134.733 42.198 134.437 42.446C134.149 42.686 133.929 43.046 133.777 43.526C133.633 44.006 133.561 44.594 133.561 45.29C133.561 45.986 133.633 46.574 133.777 47.054C133.929 47.534 134.149 47.898 134.437 48.146C134.733 48.386 135.093 48.506 135.517 48.506ZM141.41 49.25L146.45 41.33H147.362L142.322 49.25H141.41ZM141.638 41.21C142.03 41.21 142.366 41.302 142.646 41.486C142.934 41.662 143.154 41.914 143.306 42.242C143.466 42.57 143.546 42.954 143.546 43.394C143.546 43.834 143.466 44.218 143.306 44.546C143.154 44.874 142.934 45.13 142.646 45.314C142.366 45.49 142.03 45.578 141.638 45.578C141.254 45.578 140.918 45.49 140.63 45.314C140.342 45.13 140.118 44.874 139.958 44.546C139.806 44.218 139.73 43.834 139.73 43.394C139.73 42.954 139.806 42.57 139.958 42.242C140.118 41.914 140.342 41.662 140.63 41.486C140.918 41.302 141.254 41.21 141.638 41.21ZM141.638 41.966C141.414 41.966 141.222 42.022 141.062 42.134C140.902 42.246 140.782 42.41 140.702 42.626C140.622 42.834 140.582 43.09 140.582 43.394C140.582 43.69 140.622 43.946 140.702 44.162C140.782 44.378 140.902 44.542 141.062 44.654C141.222 44.766 141.414 44.822 141.638 44.822C141.87 44.822 142.062 44.766 142.214 44.654C142.374 44.542 142.494 44.378 142.574 44.162C142.654 43.946 142.694 43.69 142.694 43.394C142.694 43.09 142.654 42.834 142.574 42.626C142.494 42.41 142.374 42.246 142.214 42.134C142.062 42.022 141.87 41.966 141.638 41.966ZM147.134 45.002C147.526 45.002 147.862 45.094 148.142 45.278C148.43 45.454 148.65 45.706 148.802 46.034C148.962 46.362 149.042 46.746 149.042 47.186C149.042 47.626 148.962 48.01 148.802 48.338C148.65 48.666 148.43 48.922 148.142 49.106C147.862 49.282 147.526 49.37 147.134 49.37C146.75 49.37 146.414 49.282 146.126 49.106C145.838 48.922 145.614 48.666 145.454 48.338C145.302 48.01 145.226 47.626 145.226 47.186C145.226 46.746 145.302 46.362 145.454 46.034C145.614 45.706 145.838 45.454 146.126 45.278C146.414 45.094 146.75 45.002 147.134 45.002ZM147.134 45.758C146.91 45.758 146.718 45.814 146.558 45.926C146.398 46.038 146.278 46.202 146.198 46.418C146.118 46.626 146.078 46.882 146.078 47.186C146.078 47.482 146.118 47.738 146.198 47.954C146.278 48.17 146.398 48.334 146.558 48.446C146.718 48.558 146.91 48.614 147.134 48.614C147.366 48.614 147.558 48.558 147.71 48.446C147.87 48.334 147.99 48.17 148.07 47.954C148.15 47.738 148.19 47.482 148.19 47.186C148.19 46.882 148.15 46.626 148.07 46.418C147.99 46.202 147.87 46.038 147.71 45.926C147.558 45.814 147.366 45.758 147.134 45.758ZM156.905 49.37C156.521 49.37 156.157 49.298 155.813 49.154C155.477 49.01 155.201 48.778 154.985 48.458C154.777 48.13 154.673 47.706 154.673 47.186V43.25H155.633V46.934C155.633 47.542 155.765 47.962 156.029 48.194C156.293 48.418 156.665 48.53 157.145 48.53C157.369 48.53 157.589 48.494 157.805 48.422C158.021 48.342 158.213 48.222 158.381 48.062C158.557 47.894 158.693 47.682 158.789 47.426C158.893 47.17 158.945 46.866 158.945 46.514V43.25H159.905V49.25H159.065L159.005 48.338C158.797 48.698 158.513 48.962 158.153 49.13C157.801 49.29 157.385 49.37 156.905 49.37ZM162.139 51.77V43.25H162.979L163.063 44.714L162.931 44.546C163.035 44.266 163.191 44.022 163.399 43.814C163.607 43.598 163.859 43.43 164.155 43.31C164.451 43.19 164.771 43.13 165.115 43.13C165.603 43.13 166.051 43.254 166.459 43.502C166.875 43.75 167.207 44.106 167.455 44.57C167.703 45.034 167.827 45.594 167.827 46.25C167.827 46.898 167.699 47.458 167.443 47.93C167.195 48.394 166.863 48.75 166.447 48.998C166.031 49.246 165.575 49.37 165.079 49.37C164.583 49.37 164.147 49.25 163.771 49.01C163.403 48.762 163.139 48.45 162.979 48.074L163.099 47.894V51.77H162.139ZM164.983 48.53C165.575 48.53 166.035 48.322 166.363 47.906C166.699 47.49 166.867 46.938 166.867 46.25C166.867 45.562 166.703 45.01 166.375 44.594C166.055 44.178 165.603 43.97 165.019 43.97C164.635 43.97 164.299 44.066 164.011 44.258C163.723 44.442 163.499 44.706 163.339 45.05C163.179 45.386 163.099 45.786 163.099 46.25C163.099 46.706 163.175 47.106 163.327 47.45C163.487 47.794 163.707 48.062 163.987 48.254C164.275 48.438 164.607 48.53 164.983 48.53ZM170.575 40.49V47.726C170.575 48.03 170.631 48.242 170.743 48.362C170.855 48.474 171.035 48.53 171.283 48.53C171.443 48.53 171.575 48.518 171.679 48.494C171.783 48.47 171.923 48.426 172.099 48.362L171.943 49.202C171.815 49.258 171.675 49.298 171.523 49.322C171.371 49.354 171.215 49.37 171.055 49.37C170.567 49.37 170.203 49.238 169.963 48.974C169.731 48.71 169.615 48.306 169.615 47.762V40.49H170.575ZM175.815 43.13C176.383 43.13 176.883 43.254 177.315 43.502C177.755 43.75 178.099 44.11 178.347 44.582C178.595 45.046 178.719 45.602 178.719 46.25C178.719 46.898 178.595 47.458 178.347 47.93C178.099 48.394 177.755 48.75 177.315 48.998C176.883 49.246 176.383 49.37 175.815 49.37C175.255 49.37 174.755 49.246 174.315 48.998C173.875 48.75 173.531 48.394 173.283 47.93C173.035 47.458 172.911 46.898 172.911 46.25C172.911 45.602 173.035 45.046 173.283 44.582C173.531 44.11 173.875 43.75 174.315 43.502C174.755 43.254 175.255 43.13 175.815 43.13ZM175.815 43.958C175.407 43.958 175.059 44.05 174.771 44.234C174.483 44.418 174.259 44.682 174.099 45.026C173.947 45.362 173.871 45.77 173.871 46.25C173.871 46.722 173.947 47.13 174.099 47.474C174.259 47.818 174.483 48.082 174.771 48.266C175.059 48.45 175.407 48.542 175.815 48.542C176.223 48.542 176.571 48.45 176.859 48.266C177.147 48.082 177.367 47.818 177.519 47.474C177.679 47.13 177.759 46.722 177.759 46.25C177.759 45.77 177.679 45.362 177.519 45.026C177.367 44.682 177.147 44.418 176.859 44.234C176.571 44.05 176.223 43.958 175.815 43.958ZM184.03 45.374C184.03 44.926 183.91 44.582 183.67 44.342C183.43 44.094 183.09 43.97 182.65 43.97C182.234 43.97 181.882 44.062 181.594 44.246C181.306 44.422 181.094 44.71 180.958 45.11L180.178 44.63C180.338 44.182 180.634 43.822 181.066 43.55C181.498 43.27 182.034 43.13 182.674 43.13C183.106 43.13 183.498 43.206 183.85 43.358C184.202 43.502 184.478 43.726 184.678 44.03C184.886 44.326 184.99 44.71 184.99 45.182V48.086C184.99 48.374 185.142 48.518 185.446 48.518C185.598 48.518 185.746 48.498 185.89 48.458L185.842 49.214C185.682 49.294 185.474 49.334 185.218 49.334C184.986 49.334 184.778 49.29 184.594 49.202C184.41 49.114 184.266 48.982 184.162 48.806C184.058 48.622 184.006 48.394 184.006 48.122V48.002L184.246 48.038C184.15 48.35 183.986 48.606 183.754 48.806C183.522 48.998 183.262 49.142 182.974 49.238C182.686 49.326 182.402 49.37 182.122 49.37C181.77 49.37 181.442 49.31 181.138 49.19C180.834 49.07 180.59 48.89 180.406 48.65C180.23 48.402 180.142 48.098 180.142 47.738C180.142 47.29 180.29 46.922 180.586 46.634C180.89 46.338 181.31 46.138 181.846 46.034L184.222 45.566V46.358L182.29 46.754C181.898 46.834 181.606 46.946 181.414 47.09C181.222 47.234 181.126 47.434 181.126 47.69C181.126 47.938 181.222 48.142 181.414 48.302C181.614 48.454 181.894 48.53 182.254 48.53C182.486 48.53 182.706 48.502 182.914 48.446C183.13 48.382 183.322 48.29 183.49 48.17C183.658 48.042 183.79 47.886 183.886 47.702C183.982 47.51 184.03 47.286 184.03 47.03V45.374ZM189.663 49.37C189.167 49.37 188.711 49.246 188.295 48.998C187.879 48.75 187.547 48.394 187.299 47.93C187.051 47.458 186.927 46.898 186.927 46.25C186.927 45.586 187.059 45.022 187.323 44.558C187.587 44.094 187.935 43.742 188.367 43.502C188.799 43.254 189.263 43.13 189.759 43.13C190.255 43.13 190.683 43.258 191.043 43.514C191.411 43.77 191.655 44.11 191.775 44.534L191.655 44.618V40.49H192.615V49.25H191.775L191.691 47.798L191.823 47.726C191.767 48.078 191.631 48.378 191.415 48.626C191.207 48.866 190.947 49.05 190.635 49.178C190.331 49.306 190.007 49.37 189.663 49.37ZM189.759 48.53C190.143 48.53 190.475 48.434 190.755 48.242C191.043 48.05 191.263 47.778 191.415 47.426C191.575 47.066 191.655 46.646 191.655 46.166C191.655 45.71 191.575 45.318 191.415 44.99C191.263 44.662 191.047 44.41 190.767 44.234C190.495 44.058 190.175 43.97 189.807 43.97C189.199 43.97 188.727 44.178 188.391 44.594C188.055 45.01 187.887 45.562 187.887 46.25C187.887 46.938 188.051 47.49 188.379 47.906C188.707 48.322 189.167 48.53 189.759 48.53ZM197.354 49.37C196.786 49.37 196.278 49.246 195.83 48.998C195.39 48.75 195.046 48.394 194.798 47.93C194.55 47.458 194.426 46.898 194.426 46.25C194.426 45.602 194.55 45.046 194.798 44.582C195.046 44.11 195.386 43.75 195.818 43.502C196.25 43.254 196.742 43.13 197.294 43.13C197.854 43.13 198.33 43.25 198.722 43.49C199.122 43.73 199.426 44.058 199.634 44.474C199.842 44.882 199.946 45.342 199.946 45.854C199.946 45.99 199.942 46.114 199.934 46.226C199.926 46.338 199.914 46.438 199.898 46.526H195.05V45.674H199.478L198.986 45.77C198.986 45.194 198.826 44.75 198.506 44.438C198.194 44.126 197.782 43.97 197.27 43.97C196.878 43.97 196.538 44.062 196.25 44.246C195.97 44.422 195.75 44.682 195.59 45.026C195.438 45.362 195.362 45.77 195.362 46.25C195.362 46.722 195.442 47.13 195.602 47.474C195.762 47.818 195.986 48.082 196.274 48.266C196.57 48.442 196.922 48.53 197.33 48.53C197.77 48.53 198.126 48.446 198.398 48.278C198.678 48.11 198.902 47.882 199.07 47.594L199.826 48.038C199.674 48.31 199.478 48.546 199.238 48.746C199.006 48.946 198.73 49.102 198.41 49.214C198.098 49.318 197.746 49.37 197.354 49.37ZM204.112 49.37C203.616 49.37 203.16 49.246 202.744 48.998C202.328 48.75 201.996 48.394 201.748 47.93C201.5 47.458 201.376 46.898 201.376 46.25C201.376 45.586 201.508 45.022 201.772 44.558C202.036 44.094 202.384 43.742 202.816 43.502C203.248 43.254 203.712 43.13 204.208 43.13C204.704 43.13 205.132 43.258 205.492 43.514C205.86 43.77 206.104 44.11 206.224 44.534L206.104 44.618V40.49H207.064V49.25H206.224L206.14 47.798L206.272 47.726C206.216 48.078 206.08 48.378 205.864 48.626C205.656 48.866 205.396 49.05 205.084 49.178C204.78 49.306 204.456 49.37 204.112 49.37ZM204.208 48.53C204.592 48.53 204.924 48.434 205.204 48.242C205.492 48.05 205.712 47.778 205.864 47.426C206.024 47.066 206.104 46.646 206.104 46.166C206.104 45.71 206.024 45.318 205.864 44.99C205.712 44.662 205.496 44.41 205.216 44.234C204.944 44.058 204.624 43.97 204.256 43.97C203.648 43.97 203.176 44.178 202.84 44.594C202.504 45.01 202.336 45.562 202.336 46.25C202.336 46.938 202.5 47.49 202.828 47.906C203.156 48.322 203.616 48.53 204.208 48.53Z" fill="#667085"/>
<rect x="296.5" y="16.75" width="15" height="15" rx="7.5" fill="#2824D5"/>
<path d="M307.333 21.75L302.75 26.3333L300.667 24.25" stroke="white" stroke-width="1.66667" stroke-linecap="round" stroke-linejoin="round"/>
<rect x="296.5" y="16.75" width="15" height="15" rx="7.5" stroke="#2824D5"/>
</g>
<rect x="0.5" y="0.75" width="329" height="71" rx="11.5" stroke="#2824D5"/>
<rect y="80.25" width="330" height="94" rx="12" fill="white"/>
<rect x="14" y="94.25" width="32" height="32" rx="16" fill="#D4D3F7"/>
<g clip-path="url(#clip2_644_96424)">
<path d="M30.6665 103.583H25.9998C25.6462 103.583 25.3071 103.724 25.057 103.974C24.807 104.224 24.6665 104.563 24.6665 104.917V115.583C24.6665 115.937 24.807 116.276 25.057 116.526C25.3071 116.776 25.6462 116.917 25.9998 116.917H33.9998C34.3535 116.917 34.6926 116.776 34.9426 116.526C35.1927 116.276 35.3332 115.937 35.3332 115.583V108.25M30.6665 103.583L35.3332 108.25M30.6665 103.583V108.25H35.3332" stroke="#2824D5" stroke-width="1.33333" stroke-linecap="round" stroke-linejoin="round"/>
</g>
<rect x="14" y="94.25" width="32" height="32" rx="16" stroke="#EAE9FB" stroke-width="4"/>
<path d="M64.634 102.01C66.0807 102.01 67.2053 102.411 68.008 103.214C68.82 104.007 69.226 105.146 69.226 106.63C69.226 108.114 68.82 109.257 68.008 110.06C67.2053 110.853 66.0807 111.25 64.634 111.25H61.372V102.01H64.634ZM64.634 109.976C65.614 109.976 66.3607 109.687 66.874 109.108C67.3967 108.52 67.658 107.694 67.658 106.63C67.658 105.566 67.3967 104.745 66.874 104.166C66.3607 103.578 65.614 103.284 64.634 103.284H62.87V109.976H64.634ZM71.1835 111.25V104.25H72.4575L72.5975 105.51C72.7842 105.053 73.0595 104.707 73.4235 104.474C73.7968 104.231 74.2542 104.11 74.7955 104.11C74.9355 104.11 75.0755 104.124 75.2155 104.152C75.3555 104.171 75.4722 104.203 75.5655 104.25L75.3555 105.566C75.2528 105.529 75.1362 105.501 75.0055 105.482C74.8842 105.454 74.7162 105.44 74.5015 105.44C74.2122 105.44 73.9275 105.519 73.6475 105.678C73.3675 105.827 73.1342 106.056 72.9475 106.364C72.7702 106.672 72.6815 107.064 72.6815 107.54V111.25H71.1835ZM77.7364 103.074C77.4097 103.074 77.1577 102.995 76.9804 102.836C76.8124 102.668 76.7284 102.435 76.7284 102.136C76.7284 101.837 76.8124 101.609 76.9804 101.45C77.1577 101.291 77.4097 101.212 77.7364 101.212C78.0537 101.212 78.2964 101.291 78.4644 101.45C78.6417 101.609 78.7304 101.837 78.7304 102.136C78.7304 102.435 78.6417 102.668 78.4644 102.836C78.2964 102.995 78.0537 103.074 77.7364 103.074ZM78.4784 104.25V111.25H76.9804V104.25H78.4784ZM85.4282 104.25H86.9962L84.2102 111.25H82.5722L79.7722 104.25H81.4102L83.3982 109.948L85.4282 104.25ZM89.0293 103.074C88.7027 103.074 88.4507 102.995 88.2733 102.836C88.1053 102.668 88.0213 102.435 88.0213 102.136C88.0213 101.837 88.1053 101.609 88.2733 101.45C88.4507 101.291 88.7027 101.212 89.0293 101.212C89.3467 101.212 89.5893 101.291 89.7573 101.45C89.9347 101.609 90.0233 101.837 90.0233 102.136C90.0233 102.435 89.9347 102.668 89.7573 102.836C89.5893 102.995 89.3467 103.074 89.0293 103.074ZM89.7713 104.25V111.25H88.2733V104.25H89.7713ZM92.1151 111.25V104.25H93.4451L93.5431 106.07L93.3471 105.874C93.4778 105.473 93.6645 105.141 93.9071 104.88C94.1591 104.609 94.4531 104.413 94.7891 104.292C95.1345 104.171 95.4985 104.11 95.8811 104.11C96.3758 104.11 96.8191 104.208 97.2111 104.404C97.6125 104.591 97.9298 104.875 98.1631 105.258C98.3965 105.641 98.5131 106.126 98.5131 106.714V111.25H97.0151V107.176C97.0151 106.485 96.8705 106.009 96.5811 105.748C96.3011 105.477 95.9465 105.342 95.5171 105.342C95.2091 105.342 94.9105 105.417 94.6211 105.566C94.3318 105.706 94.0891 105.935 93.8931 106.252C93.7065 106.569 93.6131 106.994 93.6131 107.526V111.25H92.1151ZM106.943 102.78L107.181 103.956C107.153 103.956 107.125 103.956 107.097 103.956C107.069 103.947 107.041 103.942 107.013 103.942C106.565 103.942 106.224 104.04 105.991 104.236C105.758 104.423 105.641 104.698 105.641 105.062L104.913 104.726C104.913 104.353 104.992 104.021 105.151 103.732C105.31 103.433 105.534 103.2 105.823 103.032C106.122 102.864 106.458 102.78 106.831 102.78C106.85 102.78 106.868 102.78 106.887 102.78C106.906 102.78 106.924 102.78 106.943 102.78ZM104.731 110.158C105.44 110.158 105.991 110.317 106.383 110.634C106.775 110.942 106.971 111.371 106.971 111.922C106.971 112.407 106.817 112.823 106.509 113.168C106.201 113.523 105.781 113.793 105.249 113.98C104.726 114.167 104.124 114.26 103.443 114.26C102.295 114.26 101.446 114.083 100.895 113.728C100.344 113.373 100.069 112.93 100.069 112.398C100.069 112.025 100.2 111.698 100.461 111.418C100.732 111.138 101.184 110.979 101.819 110.942L101.735 111.166C101.343 111.082 101.026 110.933 100.783 110.718C100.55 110.494 100.433 110.181 100.433 109.78C100.433 109.379 100.587 109.038 100.895 108.758C101.203 108.478 101.637 108.315 102.197 108.268L102.981 108.646H102.813C102.384 108.683 102.08 108.781 101.903 108.94C101.726 109.099 101.637 109.276 101.637 109.472C101.637 109.705 101.721 109.878 101.889 109.99C102.066 110.102 102.314 110.158 102.631 110.158H104.731ZM103.443 113.14C103.956 113.14 104.376 113.089 104.703 112.986C105.039 112.893 105.286 112.767 105.445 112.608C105.613 112.459 105.697 112.291 105.697 112.104C105.697 111.889 105.608 111.717 105.431 111.586C105.263 111.455 104.955 111.39 104.507 111.39H102.253C101.992 111.39 101.772 111.455 101.595 111.586C101.418 111.726 101.329 111.913 101.329 112.146C101.329 112.454 101.516 112.697 101.889 112.874C102.262 113.051 102.78 113.14 103.443 113.14ZM103.387 104.11C104.003 104.11 104.535 104.208 104.983 104.404C105.44 104.6 105.79 104.875 106.033 105.23C106.285 105.585 106.411 106 106.411 106.476C106.411 106.952 106.285 107.367 106.033 107.722C105.79 108.077 105.44 108.352 104.983 108.548C104.535 108.744 104.003 108.842 103.387 108.842C102.416 108.842 101.67 108.627 101.147 108.198C100.634 107.759 100.377 107.185 100.377 106.476C100.377 106 100.503 105.585 100.755 105.23C101.007 104.875 101.357 104.6 101.805 104.404C102.262 104.208 102.79 104.11 103.387 104.11ZM103.387 105.16C102.958 105.16 102.598 105.281 102.309 105.524C102.029 105.757 101.889 106.075 101.889 106.476C101.889 106.877 102.029 107.199 102.309 107.442C102.598 107.685 102.958 107.806 103.387 107.806C103.826 107.806 104.185 107.685 104.465 107.442C104.754 107.199 104.899 106.877 104.899 106.476C104.899 106.075 104.754 105.757 104.465 105.524C104.185 105.281 103.826 105.16 103.387 105.16ZM114.604 109.962H119.7V111.25H113.106V102.01H114.604V109.962ZM122.033 103.074C121.707 103.074 121.455 102.995 121.277 102.836C121.109 102.668 121.025 102.435 121.025 102.136C121.025 101.837 121.109 101.609 121.277 101.45C121.455 101.291 121.707 101.212 122.033 101.212C122.351 101.212 122.593 101.291 122.761 101.45C122.939 101.609 123.027 101.837 123.027 102.136C123.027 102.435 122.939 102.668 122.761 102.836C122.593 102.995 122.351 103.074 122.033 103.074ZM122.775 104.25V111.25H121.277V104.25H122.775ZM128.143 104.11C128.703 104.11 129.179 104.194 129.571 104.362C129.972 104.521 130.308 104.749 130.579 105.048C130.85 105.347 131.055 105.687 131.195 106.07L129.781 106.63C129.66 106.201 129.464 105.874 129.193 105.65C128.932 105.417 128.586 105.3 128.157 105.3C127.737 105.3 127.378 105.398 127.079 105.594C126.78 105.781 126.552 106.056 126.393 106.42C126.244 106.784 126.169 107.232 126.169 107.764C126.169 108.287 126.248 108.73 126.407 109.094C126.566 109.458 126.794 109.733 127.093 109.92C127.392 110.107 127.746 110.2 128.157 110.2C128.474 110.2 128.75 110.149 128.983 110.046C129.216 109.934 129.408 109.78 129.557 109.584C129.716 109.379 129.823 109.131 129.879 108.842L131.237 109.304C131.106 109.724 130.901 110.093 130.621 110.41C130.35 110.718 130.01 110.961 129.599 111.138C129.188 111.306 128.717 111.39 128.185 111.39C127.494 111.39 126.883 111.245 126.351 110.956C125.819 110.667 125.404 110.251 125.105 109.71C124.816 109.159 124.671 108.506 124.671 107.75C124.671 106.994 124.816 106.345 125.105 105.804C125.404 105.253 125.814 104.833 126.337 104.544C126.869 104.255 127.471 104.11 128.143 104.11ZM136.06 111.39C135.36 111.39 134.744 111.245 134.212 110.956C133.68 110.667 133.265 110.251 132.966 109.71C132.677 109.159 132.532 108.506 132.532 107.75C132.532 106.994 132.677 106.345 132.966 105.804C133.265 105.253 133.676 104.833 134.198 104.544C134.721 104.255 135.314 104.11 135.976 104.11C136.658 104.11 137.236 104.25 137.712 104.53C138.188 104.81 138.552 105.193 138.804 105.678C139.056 106.163 139.182 106.714 139.182 107.33C139.182 107.498 139.178 107.657 139.168 107.806C139.159 107.955 139.145 108.086 139.126 108.198H133.498V107.05H138.468L137.726 107.274C137.726 106.639 137.568 106.154 137.25 105.818C136.933 105.473 136.499 105.3 135.948 105.3C135.547 105.3 135.197 105.393 134.898 105.58C134.6 105.767 134.371 106.047 134.212 106.42C134.054 106.784 133.974 107.232 133.974 107.764C133.974 108.287 134.058 108.73 134.226 109.094C134.394 109.458 134.632 109.733 134.94 109.92C135.248 110.107 135.612 110.2 136.032 110.2C136.499 110.2 136.877 110.111 137.166 109.934C137.456 109.757 137.684 109.509 137.852 109.192L139.042 109.752C138.874 110.088 138.646 110.382 138.356 110.634C138.076 110.877 137.74 111.063 137.348 111.194C136.956 111.325 136.527 111.39 136.06 111.39ZM141.074 111.25V104.25H142.404L142.502 106.07L142.306 105.874C142.437 105.473 142.623 105.141 142.866 104.88C143.118 104.609 143.412 104.413 143.748 104.292C144.093 104.171 144.457 104.11 144.84 104.11C145.335 104.11 145.778 104.208 146.17 104.404C146.571 104.591 146.889 104.875 147.122 105.258C147.355 105.641 147.472 106.126 147.472 106.714V111.25H145.974V107.176C145.974 106.485 145.829 106.009 145.54 105.748C145.26 105.477 144.905 105.342 144.476 105.342C144.168 105.342 143.869 105.417 143.58 105.566C143.291 105.706 143.048 105.935 142.852 106.252C142.665 106.569 142.572 106.994 142.572 107.526V111.25H141.074ZM152.402 111.39C151.702 111.39 151.063 111.255 150.484 110.984C149.905 110.713 149.448 110.331 149.112 109.836L150.148 108.94C150.353 109.323 150.647 109.631 151.03 109.864C151.422 110.088 151.889 110.2 152.43 110.2C152.859 110.2 153.2 110.125 153.452 109.976C153.704 109.827 153.83 109.617 153.83 109.346C153.83 109.169 153.769 109.015 153.648 108.884C153.536 108.744 153.317 108.637 152.99 108.562L151.52 108.254C150.773 108.105 150.241 107.867 149.924 107.54C149.607 107.204 149.448 106.779 149.448 106.266C149.448 105.883 149.56 105.529 149.784 105.202C150.008 104.875 150.335 104.614 150.764 104.418C151.203 104.213 151.725 104.11 152.332 104.11C153.032 104.11 153.629 104.236 154.124 104.488C154.619 104.731 154.997 105.081 155.258 105.538L154.222 106.406C154.045 106.033 153.783 105.757 153.438 105.58C153.093 105.393 152.733 105.3 152.36 105.3C152.061 105.3 151.805 105.337 151.59 105.412C151.375 105.487 151.212 105.589 151.1 105.72C150.988 105.851 150.932 106.005 150.932 106.182C150.932 106.369 151.002 106.532 151.142 106.672C151.282 106.812 151.534 106.919 151.898 106.994L153.494 107.33C154.166 107.461 154.637 107.685 154.908 108.002C155.188 108.31 155.328 108.688 155.328 109.136C155.328 109.584 155.211 109.981 154.978 110.326C154.745 110.662 154.409 110.923 153.97 111.11C153.531 111.297 153.009 111.39 152.402 111.39ZM160.219 111.39C159.519 111.39 158.903 111.245 158.371 110.956C157.839 110.667 157.423 110.251 157.125 109.71C156.835 109.159 156.691 108.506 156.691 107.75C156.691 106.994 156.835 106.345 157.125 105.804C157.423 105.253 157.834 104.833 158.357 104.544C158.879 104.255 159.472 104.11 160.135 104.11C160.816 104.11 161.395 104.25 161.871 104.53C162.347 104.81 162.711 105.193 162.963 105.678C163.215 106.163 163.341 106.714 163.341 107.33C163.341 107.498 163.336 107.657 163.327 107.806C163.317 107.955 163.303 108.086 163.285 108.198H157.657V107.05H162.627L161.885 107.274C161.885 106.639 161.726 106.154 161.409 105.818C161.091 105.473 160.657 105.3 160.107 105.3C159.705 105.3 159.355 105.393 159.057 105.58C158.758 105.767 158.529 106.047 158.371 106.42C158.212 106.784 158.133 107.232 158.133 107.764C158.133 108.287 158.217 108.73 158.385 109.094C158.553 109.458 158.791 109.733 159.099 109.92C159.407 110.107 159.771 110.2 160.191 110.2C160.657 110.2 161.035 110.111 161.325 109.934C161.614 109.757 161.843 109.509 162.011 109.192L163.201 109.752C163.033 110.088 162.804 110.382 162.515 110.634C162.235 110.877 161.899 111.063 161.507 111.194C161.115 111.325 160.685 111.39 160.219 111.39ZM165.988 109.36C166.306 109.36 166.558 109.453 166.744 109.64C166.94 109.817 167.038 110.06 167.038 110.368C167.038 110.676 166.94 110.923 166.744 111.11C166.558 111.297 166.306 111.39 165.988 111.39C165.662 111.39 165.4 111.297 165.204 111.11C165.018 110.923 164.924 110.676 164.924 110.368C164.924 110.06 165.018 109.817 165.204 109.64C165.4 109.453 165.662 109.36 165.988 109.36ZM169.06 114.19V104.25H170.39L170.502 106.21L170.306 105.972C170.418 105.608 170.591 105.286 170.824 105.006C171.058 104.726 171.347 104.507 171.692 104.348C172.047 104.189 172.434 104.11 172.854 104.11C173.424 104.11 173.942 104.255 174.408 104.544C174.875 104.833 175.244 105.249 175.514 105.79C175.785 106.322 175.92 106.971 175.92 107.736C175.92 108.501 175.78 109.159 175.5 109.71C175.23 110.251 174.856 110.667 174.38 110.956C173.914 111.245 173.391 111.39 172.812 111.39C172.215 111.39 171.706 111.236 171.286 110.928C170.866 110.611 170.568 110.209 170.39 109.724L170.558 109.486V114.19H169.06ZM172.49 110.172C173.097 110.172 173.568 109.957 173.904 109.528C174.25 109.099 174.422 108.506 174.422 107.75C174.422 106.994 174.254 106.401 173.918 105.972C173.582 105.533 173.116 105.314 172.518 105.314C172.126 105.314 171.781 105.417 171.482 105.622C171.193 105.818 170.964 106.098 170.796 106.462C170.638 106.817 170.558 107.246 170.558 107.75C170.558 108.245 170.638 108.674 170.796 109.038C170.955 109.402 171.179 109.682 171.468 109.878C171.758 110.074 172.098 110.172 172.49 110.172ZM180.526 111.39C179.947 111.39 179.42 111.245 178.944 110.956C178.477 110.667 178.108 110.251 177.838 109.71C177.567 109.169 177.432 108.52 177.432 107.764C177.432 106.98 177.576 106.317 177.866 105.776C178.155 105.235 178.542 104.824 179.028 104.544C179.513 104.255 180.045 104.11 180.624 104.11C181.221 104.11 181.725 104.273 182.136 104.6C182.546 104.927 182.822 105.351 182.962 105.874L182.794 106.028V101.1H184.292V111.25H182.962L182.85 109.346L183.046 109.36C182.98 109.78 182.826 110.144 182.584 110.452C182.341 110.751 182.038 110.984 181.674 111.152C181.319 111.311 180.936 111.39 180.526 111.39ZM180.848 110.186C181.249 110.186 181.594 110.083 181.884 109.878C182.173 109.673 182.397 109.383 182.556 109.01C182.714 108.637 182.794 108.189 182.794 107.666C182.794 107.181 182.714 106.765 182.556 106.42C182.397 106.065 182.173 105.795 181.884 105.608C181.604 105.421 181.277 105.328 180.904 105.328C180.278 105.328 179.793 105.543 179.448 105.972C179.102 106.401 178.93 106.994 178.93 107.75C178.93 108.506 179.098 109.103 179.434 109.542C179.77 109.971 180.241 110.186 180.848 110.186ZM189.583 101.002C189.872 101.002 190.134 101.035 190.367 101.1C190.61 101.156 190.792 101.235 190.913 101.338L190.633 102.416C190.53 102.351 190.414 102.304 190.283 102.276C190.152 102.239 190.003 102.22 189.835 102.22C189.452 102.22 189.149 102.309 188.925 102.486C188.71 102.663 188.603 102.953 188.603 103.354V104.376L188.645 104.754V111.25H187.147V103.242C187.147 102.887 187.198 102.57 187.301 102.29C187.413 102.01 187.576 101.777 187.791 101.59C188.006 101.394 188.262 101.249 188.561 101.156C188.869 101.053 189.21 101.002 189.583 101.002ZM190.871 104.25V105.426H185.831V104.25H190.871Z" fill="#344054"/>
<path d="M60.888 129.25V128.47C61.68 127.886 62.34 127.374 62.868 126.934C63.404 126.494 63.832 126.094 64.152 125.734C64.472 125.374 64.7 125.034 64.836 124.714C64.972 124.386 65.04 124.046 65.04 123.694C65.04 123.222 64.888 122.842 64.584 122.554C64.288 122.258 63.88 122.11 63.36 122.11C62.816 122.11 62.38 122.29 62.052 122.65C61.724 123.002 61.532 123.474 61.476 124.066L60.636 123.562C60.708 123.098 60.856 122.69 61.08 122.338C61.312 121.986 61.62 121.71 62.004 121.51C62.396 121.31 62.86 121.21 63.396 121.21C63.804 121.21 64.168 121.27 64.488 121.39C64.816 121.51 65.096 121.682 65.328 121.906C65.56 122.122 65.736 122.382 65.856 122.686C65.984 122.99 66.048 123.326 66.048 123.694C66.048 124.19 65.928 124.678 65.688 125.158C65.448 125.63 65.052 126.126 64.5 126.646C63.948 127.166 63.2 127.742 62.256 128.374V128.386C62.344 128.378 62.464 128.374 62.616 128.374C62.776 128.366 62.932 128.362 63.084 128.362C63.244 128.354 63.364 128.35 63.444 128.35H66.216V129.25H60.888ZM70.7281 129.37C69.8321 129.37 69.1161 129.022 68.5801 128.326C68.0441 127.63 67.7761 126.618 67.7761 125.29C67.7761 123.962 68.0441 122.95 68.5801 122.254C69.1161 121.558 69.8321 121.21 70.7281 121.21C71.6321 121.21 72.3481 121.558 72.8761 122.254C73.4121 122.95 73.6801 123.962 73.6801 125.29C73.6801 126.618 73.4121 127.63 72.8761 128.326C72.3481 129.022 71.6321 129.37 70.7281 129.37ZM70.7281 128.506C71.1521 128.506 71.5081 128.386 71.7961 128.146C72.0921 127.898 72.3121 127.534 72.4561 127.054C72.6081 126.574 72.6841 125.986 72.6841 125.29C72.6841 124.594 72.6081 124.006 72.4561 123.526C72.3121 123.046 72.0921 122.686 71.7961 122.446C71.5081 122.198 71.1521 122.074 70.7281 122.074C70.3041 122.074 69.9441 122.198 69.6481 122.446C69.3601 122.686 69.1401 123.046 68.9881 123.526C68.8441 124.006 68.7721 124.594 68.7721 125.29C68.7721 125.986 68.8441 126.574 68.9881 127.054C69.1401 127.534 69.3601 127.898 69.6481 128.146C69.9441 128.386 70.3041 128.506 70.7281 128.506ZM78.1929 129.37C77.2969 129.37 76.5809 129.022 76.0449 128.326C75.5089 127.63 75.2409 126.618 75.2409 125.29C75.2409 123.962 75.5089 122.95 76.0449 122.254C76.5809 121.558 77.2969 121.21 78.1929 121.21C79.0969 121.21 79.8129 121.558 80.3409 122.254C80.8769 122.95 81.1449 123.962 81.1449 125.29C81.1449 126.618 80.8769 127.63 80.3409 128.326C79.8129 129.022 79.0969 129.37 78.1929 129.37ZM78.1929 128.506C78.6169 128.506 78.9729 128.386 79.2609 128.146C79.5569 127.898 79.7769 127.534 79.9209 127.054C80.0729 126.574 80.1489 125.986 80.1489 125.29C80.1489 124.594 80.0729 124.006 79.9209 123.526C79.7769 123.046 79.5569 122.686 79.2609 122.446C78.9729 122.198 78.6169 122.074 78.1929 122.074C77.7689 122.074 77.4089 122.198 77.1129 122.446C76.8249 122.686 76.6049 123.046 76.4529 123.526C76.3089 124.006 76.2369 124.594 76.2369 125.29C76.2369 125.986 76.3089 126.574 76.4529 127.054C76.6049 127.534 76.8249 127.898 77.1129 128.146C77.4089 128.386 77.7689 128.506 78.1929 128.506ZM93.5156 121.33L90.0596 124.87L89.9156 125.026L87.7916 127.198V125.902L92.2556 121.33H93.5156ZM88.2716 121.33V129.25H87.3116V121.33H88.2716ZM90.1556 124.258L93.5516 129.25H92.3996L89.3636 124.798L90.1556 124.258ZM95.1866 129.25V121.33H98.0066C98.9426 121.33 99.6266 121.526 100.059 121.918C100.491 122.31 100.707 122.842 100.707 123.514C100.707 123.914 100.591 124.278 100.359 124.606C100.127 124.926 99.7986 125.13 99.3746 125.218V125.23C99.8466 125.318 100.219 125.534 100.491 125.878C100.771 126.214 100.911 126.598 100.911 127.03C100.911 127.702 100.659 128.242 100.155 128.65C99.6506 129.05 98.9306 129.25 97.9946 129.25H95.1866ZM96.1466 128.35H98.2226C98.7906 128.35 99.2106 128.234 99.4826 128.002C99.7626 127.77 99.9026 127.446 99.9026 127.03C99.9026 126.606 99.7626 126.282 99.4826 126.058C99.2106 125.826 98.7906 125.71 98.2226 125.71H96.1466V128.35ZM96.1466 124.81H98.0186C99.1386 124.81 99.6986 124.378 99.6986 123.514C99.6986 122.658 99.1386 122.23 98.0186 122.23H96.1466V124.81Z" fill="#667085"/>
<rect x="60" y="144.25" width="190" height="8" rx="4" fill="#EAE9FB"/>
<rect x="60" y="144.25" width="19.1377" height="8" rx="4" fill="#2824D5"/>
<path d="M266.842 143.068V153.25H265.301V144.609H265.241L262.805 146.2V144.729L265.346 143.068H266.842ZM273.141 153.419C272.356 153.416 271.685 153.209 271.128 152.798C270.571 152.387 270.145 151.788 269.85 151.003C269.555 150.217 269.408 149.271 269.408 148.164C269.408 147.06 269.555 146.117 269.85 145.335C270.148 144.553 270.576 143.956 271.133 143.545C271.693 143.134 272.362 142.929 273.141 142.929C273.92 142.929 274.588 143.136 275.145 143.55C275.702 143.961 276.128 144.558 276.423 145.34C276.721 146.119 276.87 147.06 276.87 148.164C276.87 149.274 276.723 150.222 276.428 151.008C276.133 151.79 275.707 152.388 275.15 152.803C274.593 153.214 273.924 153.419 273.141 153.419ZM273.141 152.092C273.831 152.092 274.369 151.755 274.757 151.082C275.148 150.41 275.344 149.437 275.344 148.164C275.344 147.319 275.254 146.605 275.075 146.021C274.9 145.435 274.646 144.991 274.315 144.689C273.987 144.384 273.595 144.232 273.141 144.232C272.455 144.232 271.917 144.57 271.526 145.246C271.134 145.922 270.937 146.895 270.934 148.164C270.934 149.013 271.022 149.73 271.197 150.317C271.376 150.9 271.63 151.343 271.958 151.644C272.286 151.942 272.681 152.092 273.141 152.092ZM283.948 151.341V150.804C283.948 150.42 284.028 150.068 284.187 149.75C284.349 149.429 284.585 149.172 284.893 148.979C285.204 148.784 285.581 148.686 286.021 148.686C286.472 148.686 286.85 148.782 287.155 148.974C287.46 149.167 287.69 149.424 287.846 149.745C288.005 150.067 288.085 150.42 288.085 150.804V151.341C288.085 151.725 288.005 152.078 287.846 152.4C287.687 152.718 287.453 152.975 287.145 153.17C286.84 153.363 286.466 153.459 286.021 153.459C285.574 153.459 285.196 153.363 284.888 153.17C284.58 152.975 284.346 152.718 284.187 152.4C284.028 152.078 283.948 151.725 283.948 151.341ZM285.107 150.804V151.341C285.107 151.626 285.175 151.884 285.311 152.116C285.446 152.348 285.683 152.464 286.021 152.464C286.356 152.464 286.59 152.348 286.722 152.116C286.855 151.884 286.921 151.626 286.921 151.341V150.804C286.921 150.519 286.857 150.26 286.727 150.028C286.602 149.796 286.366 149.68 286.021 149.68C285.69 149.68 285.455 149.796 285.316 150.028C285.176 150.26 285.107 150.519 285.107 150.804ZM278.828 145.514V144.977C278.828 144.593 278.907 144.24 279.066 143.918C279.229 143.597 279.464 143.34 279.772 143.148C280.084 142.955 280.46 142.859 280.901 142.859C281.352 142.859 281.729 142.955 282.034 143.148C282.339 143.34 282.57 143.597 282.725 143.918C282.881 144.24 282.959 144.593 282.959 144.977V145.514C282.959 145.899 282.879 146.252 282.72 146.573C282.565 146.891 282.333 147.148 282.024 147.344C281.719 147.536 281.345 147.632 280.901 147.632C280.45 147.632 280.07 147.536 279.762 147.344C279.457 147.148 279.225 146.891 279.066 146.573C278.907 146.252 278.828 145.899 278.828 145.514ZM279.991 144.977V145.514C279.991 145.799 280.057 146.058 280.19 146.29C280.326 146.522 280.563 146.638 280.901 146.638C281.232 146.638 281.464 146.522 281.597 146.29C281.733 146.058 281.801 145.799 281.801 145.514V144.977C281.801 144.692 281.736 144.434 281.607 144.202C281.477 143.97 281.242 143.854 280.901 143.854C280.569 143.854 280.334 143.97 280.195 144.202C280.059 144.434 279.991 144.692 279.991 144.977ZM279.3 153.25L286.3 143.068H287.488L280.488 153.25H279.3Z" fill="#344054"/>
<path d="M296.5 101.25H298.167M298.167 101.25H311.5M298.167 101.25V112.917C298.167 113.359 298.342 113.782 298.655 114.095C298.967 114.408 299.391 114.583 299.833 114.583H308.167C308.609 114.583 309.033 114.408 309.345 114.095C309.658 113.782 309.833 113.359 309.833 112.917V101.25H298.167ZM300.667 101.25V99.5832C300.667 99.1411 300.842 98.7172 301.155 98.4047C301.467 98.0921 301.891 97.9165 302.333 97.9165H305.667C306.109 97.9165 306.533 98.0921 306.845 98.4047C307.158 98.7172 307.333 99.1411 307.333 99.5832V101.25M302.333 105.417V110.417M305.667 105.417V110.417" stroke="#667085" stroke-width="1.66667" stroke-linecap="round" stroke-linejoin="round"/>
<defs>
<clipPath id="clip0_644_96424">
<rect y="0.25" width="330" height="72" rx="12" fill="white"/>
</clipPath>
<clipPath id="clip1_644_96424">
<rect width="16" height="16" fill="white" transform="translate(24 22.25)"/>
</clipPath>
<clipPath id="clip2_644_96424">
<rect width="16" height="16" fill="white" transform="translate(22 102.25)"/>
</clipPath>
</defs>
</svg>
